<svg xmlns="http://www.w3.org/2000/svg" width="36" height="26" viewBox="0 0 35.473 24.831">
  <path id="Icon_awesome-user-friends" data-name="Icon awesome-user-friends" d="M10.642,14.666A6.208,6.208,0,1,0,4.434,8.458,6.2,6.2,0,0,0,10.642,14.666ZM14.9,16.439h-.46a8.571,8.571,0,0,1-7.593,0h-.46A6.387,6.387,0,0,0,0,22.824v1.6a2.661,2.661,0,0,0,2.66,2.66H18.623a2.661,2.661,0,0,0,2.66-2.66v-1.6A6.387,6.387,0,0,0,14.9,16.439ZM26.6,14.666a5.321,5.321,0,1,0-5.321-5.321A5.322,5.322,0,0,0,26.6,14.666Zm2.66,1.774h-.211a6.989,6.989,0,0,1-4.9,0h-.211a6.156,6.156,0,0,0-3.087.854,8.111,8.111,0,0,1,2.2,5.532v2.128c0,.122-.028.238-.033.355h9.788a2.661,2.661,0,0,0,2.66-2.66,6.2,6.2,0,0,0-6.208-6.208Z" transform="translate(0 -2.25)" fill="#ffffff"/>
</svg>
