<svg xmlns="http://www.w3.org/2000/svg" width="36" height="26" viewBox="0 0 34.822 23.215">
  <path id="Icon_awesome-ticket-alt" data-name="Icon awesome-ticket-alt" d="M7.738,10.3H27.084V21.911H7.738Zm24.182,5.8a2.9,2.9,0,0,0,2.9,2.9v5.8a2.9,2.9,0,0,1-2.9,2.9H2.9a2.9,2.9,0,0,1-2.9-2.9v-5.8a2.9,2.9,0,0,0,2.9-2.9,2.9,2.9,0,0,0-2.9-2.9V7.4A2.9,2.9,0,0,1,2.9,4.5H31.92a2.9,2.9,0,0,1,2.9,2.9v5.8A2.9,2.9,0,0,0,31.92,16.107Zm-2.9-6.287a1.451,1.451,0,0,0-1.451-1.451H7.255A1.451,1.451,0,0,0,5.8,9.82V22.395a1.451,1.451,0,0,0,1.451,1.451H27.568a1.451,1.451,0,0,0,1.451-1.451Z" transform="translate(0 -4.5)" fill="#ffffff"/>
</svg>
